inDegrees=yes
name=ik_Shooting_orientations
DataType=double
version=3
OpenSimVersion=4.3-2021-08-27-4bc7ad9
endheader
time	pelvis_tilt	pelvis_list	pelvis_rotation	pelvis_tx	pelvis_ty	pelvis_tz	hip_flexion_r	hip_adduction_r	hip_rotation_r	knee_angle_r	knee_angle_r_beta	ankle_angle_r	subtalar_angle_r	mtp_angle_r	hip_flexion_l	hip_adduction_l	hip_rotation_l	knee_angle_l	knee_angle_l_beta	ankle_angle_l	subtalar_angle_l	mtp_angle_l	lumbar_extension	lumbar_bending	lumbar_rotation	arm_flex_r	arm_add_r	arm_rot_r	elbow_flex_r	pro_sup_r	wrist_flex_r	wrist_dev_r	arm_flex_l	arm_add_l	arm_rot_l	elbow_flex_l	pro_sup_l	wrist_flex_l	wrist_dev_l
9.189999999999849	-4.041502080993442	4.641677535745239	-106.4003951188362	0	0.9399999999999999	0	37.24806361726958	-10.54745390380462	0	56.32673769834987	0.9830870297434178	-5.243821789985178	0	0	37.24806361726958	-10.54745390380462	0	56.32673769834987	0.9830870297434178	-5.243821789985178	0	0	-6.620250064046351	-11.53717941952867	5.060848416402731	22.7330503408461	14.59109187835233	38.68875277648062	74.85039813223135	46.96010860401771	0	0	0	-8.759551815829239	0	74.85039813223135	46.96010860401771	0	0
9.199999999999848	-4.038144244369536	4.648456806011195	-106.4008794358337	0	0.9399999999999999	0	37.24875992778615	-10.54728571267092	0	56.32699708388917	0.9830915568751106	-5.243724313124157	0	0	37.24875992778615	-10.54728571267092	0	56.32699708388917	0.9830915568751106	-5.243724313124157	0	0	-6.625722837202801	-11.53235304463428	5.06485806699672	22.79654060814084	14.6216154421563	38.83643338624471	74.85041144613051	46.9596304890711	0	0	0	-8.759838481895272	0	74.85041144613051	46.9596304890711	0	0
9.209999999999848	-4.04323506297509	4.63970559389821	-106.4188586910107	0	0.9399999999999999	0	37.24952862245637	-10.54710002854146	0	56.32728334221452	0.9830965530253992	-5.243616706344223	0	0	37.24952862245637	-10.54710002854146	0	56.32728334221452	0.9830965530253992	-5.243616706344223	0	0	-6.641030304811026	-11.5519107588952	5.073704326517723	22.81889479490049	14.71339963714589	39.14926156048849	74.85042614400457	46.95910262836117	0	0	0	-8.760154887515252	0	74.85042614400457	46.95910262836117	0	0
9.219999999999848	-4.033355852673015	4.618118550164729	-106.3971433063156	0	0.9399999999999999	0	37.2511162774524	-10.54671377771522	0	56.32787122488168	0.9831068135135567	-5.243392543916225	0	0	37.2511162774524	-10.54671377771522	0	56.32787122488168	0.9831068135135567	-5.243392543916225	0	0	-6.678405463428313	-11.52659061084805	5.008677137646187	22.90466905233508	14.72176256932012	39.65899862163968	74.85045649703834	46.95800601590089	0	0	0	-8.760805732022655	0	74.85045649703834	46.95800601590089	0	0
9.229999999999848	-4.029084018546753	4.61082881171403	-106.3991366118819	0	0.9399999999999999	0	37.2531336048398	-10.5462219063332	0	56.32861660315692	0.9831198228186323	-5.243106990033355	0	0	37.2531336048398	-10.5462219063332	0	56.32861660315692	0.9831198228186323	-5.243106990033355	0	0	-6.689104781657126	-11.51049484799576	5.005972977449473	22.90544588551384	14.75422052957769	40.23507497477479	74.85049506299454	46.9566100127148	0	0	0	-8.761631500726631	0	74.85049506299454	46.9566100127148	0	0
9.239999999999847	-4.018321961031255	4.590435193345068	-106.4163362835298	0	0.9399999999999999	0	37.25465643951192	-10.54585168137799	0	56.32918034553727	0.9831296619793024	-5.242892213865781	0	0	37.25465643951192	-10.54585168137799	0	56.32918034553727	0.9831296619793024	-5.242892213865781	0	0	-6.718721733943683	-11.47747055571793	5.012159250339523	23.05167890438539	14.76053079505476	40.76466108283491	74.850524176981	46.95555863719495	0	0	0	-8.762255760180457	0	74.850524176981	46.95555863719495	0	0
9.249999999999847	-4.026529699424144	4.57942553211335	-106.4135978018794	0	0.9399999999999999	0	37.2565206761327	-10.54539765330568	0	56.3298692906364	0.9831416863396477	-5.242628752159121	0	0	37.2565206761327	-10.54539765330568	0	56.3298692906364	0.9831416863396477	-5.242628752159121	0	0	-6.698819250016048	-11.45487446874207	4.998825693495134	23.33769493118043	15.02703181471366	41.21431794091781	74.85055981680792	46.95426962953541	0	0	0	-8.763019080894198	0	74.85055981680792	46.95426962953541	0	0
9.259999999999847	-4.023483871310061	4.562355597542508	-106.4232207678923	0	0.9399999999999999	0	37.25844944640725	-10.5449280781717	0	56.33058196583679	0.9831541248683919	-5.242356328863779	0	0	37.25844944640725	-10.5449280781717	0	56.33058196583679	0.9831541248683919	-5.242356328863779	0	0	-6.693241139524492	-11.43000653598911	5.02157610399683	23.28471743628079	15.15258156831053	41.9171106273318	74.85059669048256	46.95293630089477	0	0	0	-8.763808798758795	0	74.85059669048256	46.95293630089477	0	0
9.269999999999847	-4.02612766159698	4.548617088757315	-106.4230417300805	0	0.9399999999999999	0	37.26034839651273	-10.54446603134393	0	56.33128366785203	0.9831663718789259	-5.242088339590764	0	0	37.26034839651273	-10.54446603134393	0	56.33128366785203	0.9831663718789259	-5.242088339590764	0	0	-6.680245584035728	-11.41420329726181	5.025753267769285	23.45516243746957	15.37465049856438	42.46644858239571	74.85063299434523	46.95162412856752	0	0	0	-8.764586406183984	0	74.85063299434523	46.95162412856752	0	0
9.279999999999847	-4.02258404112974	4.539501745633077	-106.4256500946141	0	0.9399999999999999	0	37.26235967364325	-10.5439768984873	0	56.33202686818739	0.9831793431717797	-5.241804707330314	0	0	37.26235967364325	-10.5439768984873	0	56.33202686818739	0.9831793431717797	-5.241804707330314	0	0	-6.673156770134123	-11.4177398643916	5.014693434870487	23.86647957352927	15.70716243146079	42.86421969872057	74.85067144590377	46.95023481885973	0	0	0	-8.765410073731072	0	74.85067144590377	46.95023481885973	0	0
9.289999999999846	-4.024157715950095	4.545381677313364	-106.4270451985566	0	0.9399999999999999	0	37.2641732438231	-10.5435364876968	0	56.33269748098259	0.983191047573062	-5.24154944121804	0	0	37.2641732438231	-10.5435364876968	0	56.33269748098259	0.983191047573062	-5.24154944121804	0	0	-6.657922749502285	-11.41344299767551	5.022527557299108	24.49710944446793	15.97673400661964	43.12466220280869	74.85070611848434	46.94898347659753	0	0	0	-8.766153214219985	0	74.85070611848434	46.94898347659753	0	0
